<?xml version="1.0" encoding="UTF-8" standalone="no"?>
<!-- Created with Inkscape (http://www.inkscape.org/) -->

<svg
   width="53.412437mm"
   height="16.744562mm"
   viewBox="0 0 53.412439 16.744562"
   version="1.1"
   id="svg1"
   sodipodi:docname="ReferLogoFullx32.svg"
   inkscape:version="1.3.2 (1:1.3.2+202404261509+091e20ef0f)"
   inkscape:export-filename="ReferLogo.svg"
   inkscape:export-xdpi="96"
   inkscape:export-ydpi="96"
   xmlns:inkscape="http://www.inkscape.org/namespaces/inkscape"
   xmlns:sodipodi="http://sodipodi.sourceforge.net/DTD/sodipodi-0.dtd"
   xmlns="http://www.w3.org/2000/svg"
   xmlns:svg="http://www.w3.org/2000/svg">
  <sodipodi:namedview
     id="namedview1"
     pagecolor="#505050"
     bordercolor="#eeeeee"
     borderopacity="1"
     inkscape:showpageshadow="0"
     inkscape:pageopacity="0"
     inkscape:pagecheckerboard="0"
     inkscape:deskcolor="#505050"
     inkscape:document-units="mm"
     inkscape:zoom="2.612942"
     inkscape:cx="99.121986"
     inkscape:cy="140.83742"
     inkscape:window-width="2560"
     inkscape:window-height="1371"
     inkscape:window-x="0"
     inkscape:window-y="32"
     inkscape:window-maximized="1"
     inkscape:current-layer="g1"
     inkscape:export-bgcolor="#ffffff00"
     inkscape:clip-to-page="false"
     showguides="false"
     showgrid="false">
    <inkscape:grid
       id="grid2"
       units="mm"
       originx="-4.8104286"
       originy="-5.38509"
       spacingx="1"
       spacingy="0.99999998"
       empcolor="#0099e5"
       empopacity="0.30196078"
       color="#0099e5"
       opacity="0.14901961"
       empspacing="5"
       dotted="false"
       gridanglex="30"
       gridanglez="30"
       visible="false" />
  </sodipodi:namedview>
  <defs
     id="defs1">
    <filter
       style="color-interpolation-filters:sRGB"
       inkscape:label="Drop Shadow"
       id="filter214"
       x="-0.051983174"
       y="-0.051983174"
       width="1.1039664"
       height="1.1039664">
      <feFlood
         result="flood"
         in="SourceGraphic"
         flood-opacity="0.501961"
         flood-color="rgb(0,0,0)"
         id="feFlood213" />
      <feGaussianBlur
         result="blur"
         in="SourceGraphic"
         stdDeviation="1.200000"
         id="feGaussianBlur213" />
      <feOffset
         result="offset"
         in="blur"
         dx="0.000000"
         dy="-0.000000"
         id="feOffset213" />
      <feComposite
         result="comp1"
         operator="out"
         in="flood"
         in2="offset"
         id="feComposite213" />
      <feComposite
         result="fbSourceGraphic"
         operator="atop"
         in="comp1"
         in2="SourceGraphic"
         id="feComposite214" />
      <feColorMatrix
         result="fbSourceGraphicAlpha"
         values="0 0 0 -1 0 0 0 0 -1 0 0 0 0 -1 0 0 0 0 1 0"
         id="feColorMatrix214" />
      <feFlood
         id="feFlood214"
         result="flood"
         in="fbSourceGraphic"
         flood-opacity="0.501961"
         flood-color="rgb(0,0,0)" />
      <feGaussianBlur
         id="feGaussianBlur214"
         result="blur"
         in="fbSourceGraphic"
         stdDeviation="1.200000" />
      <feOffset
         id="feOffset214"
         result="offset"
         in="blur"
         dx="0.000000"
         dy="-0.000000" />
      <feComposite
         id="feComposite215"
         result="comp1"
         operator="out"
         in="flood"
         in2="offset" />
      <feComposite
         id="feComposite216"
         result="comp2"
         operator="atop"
         in="comp1"
         in2="fbSourceGraphic" />
    </filter>
    <filter
       style="color-interpolation-filters:sRGB"
       inkscape:label="Greyscale"
       id="filter487"
       x="0"
       y="0"
       width="1"
       height="1">
      <feColorMatrix
         values="0.236206 0.406181 0.204677 0 0 0.236206 0.406181 0.204677 0 0 0.236206 0.406181 0.204677 0 0 0 0 0 1 0 "
         id="feColorMatrix487" />
    </filter>
    <clipPath
       clipPathUnits="userSpaceOnUse"
       id="clipPath5">
      <rect
         style="display:inline;fill:#505050;stroke-width:0.264583;filter:url(#filter487)"
         id="rect5"
         width="255"
         height="255"
         x="22.369783"
         y="7.8491373"
         transform="rotate(-45,127.53195,187.3081)" />
    </clipPath>
    <filter
       style="color-interpolation-filters:sRGB"
       inkscape:label="Drop Shadow"
       id="filter73"
       x="-0.056692917"
       y="-0.056692917"
       width="1.1133858"
       height="1.1133858">
      <feFlood
         result="flood"
         in="SourceGraphic"
         flood-opacity="0.498039"
         flood-color="rgb(0,0,0)"
         id="feFlood72" />
      <feGaussianBlur
         result="blur"
         in="SourceGraphic"
         stdDeviation="0.200000"
         id="feGaussianBlur72" />
      <feOffset
         result="offset"
         in="blur"
         dx="-0.000000"
         dy="-0.000000"
         id="feOffset72" />
      <feComposite
         result="comp1"
         operator="out"
         in="flood"
         in2="offset"
         id="feComposite72" />
      <feComposite
         result="comp2"
         operator="atop"
         in="comp1"
         in2="SourceGraphic"
         id="feComposite73" />
    </filter>
  </defs>
  <g
     id="g1"
     inkscape:label="FullLogo"
     transform="matrix(0.89816132,0,0,0.89816132,-4.3793103,-4.953972)">
    <rect
       style="display:none;opacity:0.25;fill:#ffffff;fill-opacity:1;stroke-width:1.04052"
       id="rect2"
       width="59.468647"
       height="18.643156"
       x="4.8758616"
       y="5.5156817"
       inkscape:label="LongBG"
       ry="4.8068509" />
    <rect
       style="display:none;fill:#ffffff;stroke-width:0.264583;filter:url(#filter73)"
       id="rect1"
       width="8.4666662"
       height="8.4666662"
       x="0"
       y="0"
       inkscape:label="BG"
       ry="2.430521" />
    <path
       style="font-size:18.8225px;font-family:'White Rabbit';-inkscape-font-specification:'White Rabbit';stroke-width:0.78427"
       d="m 11.19801,13.648974 h 4.481548 q 0.358524,0 0.627417,-0.268893 0.268893,-0.268893 0.268893,-0.627416 v -1.79262 q 0,-0.358523 -0.268893,-0.627416 -0.268893,-0.268893 -0.627417,-0.268893 H 11.19801 Z m 6.274167,7.170476 q -0.358524,0 -0.627416,-0.268892 -0.268893,-0.268893 -0.268893,-0.627417 v -3.585238 q 0,-0.358524 -0.268893,-0.627417 -0.268893,-0.268893 -0.627417,-0.268893 H 11.19801 v 4.481548 q 0,0.358524 -0.268892,0.627417 -0.268893,0.268892 -0.627417,0.268892 -0.3585239,0 -0.6274168,-0.268892 Q 9.4053914,20.281665 9.4053914,19.923141 V 9.1674264 q 0,-0.3585238 0.2688928,-0.6274166 0.2688929,-0.2688929 0.6274168,-0.2688929 h 5.377857 q 1.075572,0 1.88225,0.8066786 0.806679,0.8066786 0.806679,1.8822495 v 1.79262 q 0,1.075571 -0.806679,1.88225 0.806679,0.627416 0.806679,1.702988 v 3.585238 q 0,0.358524 -0.268893,0.627417 -0.268893,0.268892 -0.627417,0.268892 z m 8.963091,-5.377857 H 21.95372 v 3.585238 h 6.274167 q 0.358524,0 0.627417,0.268893 0.268892,0.268893 0.268892,0.627417 0,0.358524 -0.268892,0.627417 -0.268893,0.268892 -0.627417,0.268892 h -7.170476 q -0.358524,0 -0.627417,-0.268892 -0.268893,-0.268893 -0.268893,-0.627417 V 9.1674264 q 0,-0.3585238 0.268893,-0.6274166 0.268893,-0.2688929 0.627417,-0.2688929 h 7.170476 q 0.358524,0 0.627417,0.2688929 0.268892,0.2688928 0.268892,0.6274166 0,0.3585238 -0.268892,0.6274167 -0.268893,0.2688929 -0.627417,0.2688929 H 21.95372 v 3.585238 h 4.481548 q 0.358524,0 0.627416,0.268893 0.268893,0.268893 0.268893,0.627417 0,0.358523 -0.268893,0.627416 -0.268892,0.268893 -0.627416,0.268893 z m 10.755709,0 H 32.70943 v 3.585238 q 0,1.254834 -0.268893,1.523727 -0.268893,0.268892 -0.627417,0.268892 -0.358524,0 -0.627416,-0.268892 -0.268893,-0.268893 -0.268893,-0.627417 V 9.1674264 q 0,-0.3585238 0.268893,-0.6274166 0.268892,-0.2688929 0.627416,-0.2688929 h 7.170476 q 0.358524,0 0.627417,0.2688929 0.268893,0.2688928 0.268893,0.6274166 0,0.3585238 -0.268893,0.6274167 -0.268893,0.2688929 -0.627417,0.2688929 H 32.70943 v 3.585238 h 4.481547 q 0.358524,0 0.627417,0.268893 0.268893,0.268893 0.268893,0.627417 0,0.358523 -0.268893,0.627416 -0.268893,0.268893 -0.627417,0.268893 z m 10.755709,0 h -4.481548 v 3.585238 h 6.274167 q 0.358524,0 0.627417,0.268893 0.268893,0.268893 0.268893,0.627417 0,0.358524 -0.268893,0.627417 -0.268893,0.268892 -0.627417,0.268892 h -7.170476 q -0.358524,0 -0.627417,-0.268892 -0.268893,-0.268893 -0.268893,-0.627417 V 9.1674264 q 0,-0.3585238 0.268893,-0.6274166 0.268893,-0.2688929 0.627417,-0.2688929 h 7.170476 q 0.358524,0 0.627417,0.2688929 0.268893,0.2688928 0.268893,0.6274166 0,0.3585238 -0.268893,0.6274167 -0.268893,0.2688929 -0.627417,0.2688929 h -6.274167 v 3.585238 h 4.481548 q 0.358524,0 0.627417,0.268893 0.268893,0.268893 0.268893,0.627417 0,0.358523 -0.268893,0.627416 -0.268893,0.268893 -0.627417,0.268893 z m 6.274163,-1.792619 h 4.481548 q 0.358524,0 0.627416,-0.268893 0.268893,-0.268893 0.268893,-0.627416 v -1.79262 q 0,-0.358523 -0.268893,-0.627416 -0.268892,-0.268893 -0.627416,-0.268893 h -4.481548 z m 6.274167,7.170476 q -0.358524,0 -0.627417,-0.268892 -0.268893,-0.268893 -0.268893,-0.627417 v -3.585238 q 0,-0.358524 -0.268893,-0.627417 -0.268892,-0.268893 -0.627416,-0.268893 h -4.481548 v 4.481548 q 0,0.358524 -0.268893,0.627417 -0.268893,0.268892 -0.627416,0.268892 -0.358524,0 -0.627417,-0.268892 Q 52.42823,20.281665 52.42823,19.923141 V 9.1674264 q 0,-0.3585238 0.268893,-0.6274166 0.268893,-0.2688929 0.627417,-0.2688929 h 5.377857 q 1.075571,0 1.88225,0.8066786 0.806678,0.8066786 0.806678,1.8822495 v 1.79262 q 0,1.075571 -0.806678,1.88225 0.806678,0.627416 0.806678,1.702988 v 3.585238 q 0,0.358524 -0.268893,0.627417 -0.268892,0.268892 -0.627416,0.268892 z"
       id="text2"
       inkscape:label="ReferText"
       transform="matrix(0.98032141,0,-0.00629636,1.0200736,0,0)"
       aria-label="REFER" />
  </g>
</svg>
