<?xml version="1.0" encoding="UTF-8" standalone="no"?>
<svg
   viewBox="0 0 256 199.11111"
   width="64"
   height="49.777779"
   fill-rule="nonzero"
   version="1.1"
   id="svg2"
   sodipodi:docname="gmail.svg"
   inkscape:version="1.3.2 (1:1.3.2+202404261509+091e20ef0f)"
   xmlns:inkscape="http://www.inkscape.org/namespaces/inkscape"
   xmlns:sodipodi="http://sodipodi.sourceforge.net/DTD/sodipodi-0.dtd"
   xmlns="http://www.w3.org/2000/svg"
   xmlns:svg="http://www.w3.org/2000/svg">
  <defs
     id="defs2" />
  <sodipodi:namedview
     id="namedview2"
     pagecolor="#505050"
     bordercolor="#eeeeee"
     borderopacity="1"
     inkscape:showpageshadow="0"
     inkscape:pageopacity="0"
     inkscape:pagecheckerboard="0"
     inkscape:deskcolor="#505050"
     inkscape:zoom="8.875"
     inkscape:cx="27.042254"
     inkscape:cy="21.971831"
     inkscape:window-width="2560"
     inkscape:window-height="1371"
     inkscape:window-x="0"
     inkscape:window-y="32"
     inkscape:window-maximized="1"
     inkscape:current-layer="g1" />
  <g
     fill="#ffffff"
     fill-rule="nonzero"
     stroke="none"
     stroke-width="1"
     stroke-linecap="butt"
     stroke-linejoin="miter"
     stroke-miterlimit="10"
     stroke-dasharray="none"
     stroke-dashoffset="0"
     font-family="none"
     font-weight="none"
     font-size="none"
     text-anchor="none"
     style="mix-blend-mode:normal"
     id="g2"
     transform="matrix(1.1851852,0,0,1.1851852,-23.703704,-47.407408)">
    <g
       transform="scale(4)"
       id="g1">
      <path
         d="M 55,10 H 9 c -2.209,0 -4,1.791 -4,4 v 34 c 0,2.209 1.791,4 4,4 h 46 c 2.209,0 4,-1.791 4,-4 V 14 c 0,-2.209 -1.791,-4 -4,-4 z m 0,35.738 C 54.954,47 53.901,48 52.618,48 H 49.5 L 51,21 32,33 13,22 14.5,48 H 11.382 C 10.099,48 9.046,47 9,45.738 V 16.289 c 0,-1.25 1.03,-2.263 2.3,-2.263 h 1.2 L 32,29 51.5,14.026 h 1.2 c 1.27,0 2.3,1.013 2.3,2.263 z"
         id="path1"
         style="fill:#cbcbcb;fill-opacity:1" />
    </g>
  </g>
</svg>
